<?xml version="1.0" encoding="UTF-8"?>
<svg version="1.1" xmlns="http://www.w3.org/2000/svg" width="148" height="177">
<path d="M0 0 C48.84 0 97.68 0 148 0 C148 58.41 148 116.82 148 177 C99.16 177 50.32 177 0 177 C0 118.59 0 60.18 0 0 Z " fill="#213252" transform="translate(0,0)"/>
<path d="M0 0 C22.77 0 45.54 0 69 0 C69 58.41 69 116.82 69 177 C20.16 177 -28.68 177 -79 177 C-79 174.03 -79 171.06 -79 168 C-78.195625 168.66 -77.39125 169.32 -76.5625 170 C-73.18412937 172.22828701 -70.32257786 172.50636988 -66.34375 172.62890625 C-62.63087513 171.63261816 -60.34612038 169.95981842 -58 167 C-55.74527641 162.60649511 -53.99881659 158.05175984 -52.25 153.4375 C-51.76596392 152.19272002 -51.28029937 150.94857199 -50.79296875 149.70507812 C-49.90061324 147.42447594 -49.0159523 145.14083689 -48.14160156 142.85327148 C-47 140 -47 140 -45 136 C-19.26 136 6.48 136 33 136 C37.39322034 144.78644068 37.39322034 144.78644068 38.8125 149.6875 C40.72689178 155.72283153 43.48570655 160.90983039 46.609375 166.3828125 C48 169 48 169 48 171 C52.28803918 172.0720098 56.60812493 172.65656314 61 172 C64.44312714 169.8755173 65.71617547 168.85147359 67 165 C68.05272437 154.12184819 62.99667731 145.04902078 58.515625 135.40625 C55.15519335 127.8539397 52.12874579 120.1550891 49.01757812 112.49755859 C47.43210508 108.60615043 45.81644692 104.7276407 44.19335938 100.85180664 C43.01687426 98.04032492 41.84376454 95.2274626 40.671875 92.4140625 C40.23456055 91.36428223 39.79724609 90.31450195 39.34667969 89.23291016 C38.90227539 88.1660498 38.45787109 87.09918945 38 86 C37.16668958 83.99999045 36.33335665 81.99999029 35.5 80 C33.83333333 76 32.16666667 72 30.5 68 C30.08419678 67.00210449 29.66839355 66.00420898 29.23999023 64.97607422 C28.43992959 63.05586565 27.63995573 61.13562092 26.84008789 59.21533203 C24.67229184 54.0113656 22.50282671 48.80810018 20.33139038 43.60565186 C19.03178528 40.49167132 17.73277978 37.37744082 16.43383789 34.26318359 C15.7680748 32.66737509 15.102058 31.07167241 14.43579102 29.47607422 C13.77643353 27.89691224 13.1174616 26.31758921 12.45889282 24.73809814 C11.82341951 23.21448496 11.18686525 21.6913221 10.54916382 20.16864014 C8.58721169 15.46909724 6.71995255 10.74580046 5.00415039 5.94970703 C3.82677632 3.42028301 3.82677632 3.42028301 0 0 Z " fill="#FDFDFE" transform="translate(79,0)"/>
<path d="M0 0 C21.78 0 43.56 0 66 0 C63.36 5.28 60.72 10.56 58 16 C55.93887531 20.98792176 53.93476356 25.96539727 52 31 C50.98763356 33.58672354 49.96512931 36.16930492 48.9375 38.75 C48.68653564 39.38059326 48.43557129 40.01118652 48.17700195 40.66088867 C46.72633557 44.27641753 45.19692648 47.83908389 43.5625 51.375 C38.84721147 61.57634537 34.69239273 72.01823325 30.8125 82.5625 C28.84522413 87.90757569 26.65686711 92.96111409 24 98 C21.91285754 102.750245 19.96591199 107.54831072 18.0625 112.375 C16.47254236 116.40289269 14.84247691 120.38679215 13.06640625 124.3359375 C10.86214667 129.25284916 8.85902132 134.24091194 6.875 139.25 C6.52824219 140.12140625 6.18148438 140.9928125 5.82421875 141.890625 C5.16562565 143.54593946 4.50770056 145.20151994 3.85058594 146.85742188 C2.90471478 149.24001811 1.95374795 151.62054635 1 154 C0.67 154 0.34 154 0 154 C0 103.18 0 52.36 0 0 Z " fill="#FEFEFD" transform="translate(0,0)"/>
<path d="M0 0 C3.75782937 3.21403981 5.38130419 6.71099608 7.0625 11.25 C7.45308594 12.26296143 7.45308594 12.26296143 7.8515625 13.29638672 C9.10471977 16.55916113 10.30843063 19.83937086 11.5 23.125 C12.7374785 26.48489802 14.23101514 29.69566652 15.75 32.9375 C19.15136354 40.20674827 22.18671891 47.60998771 25.19287109 55.04980469 C25.99601041 56.99036029 26.84912605 58.90346984 27.70703125 60.8203125 C29 64 29 64 29 67 C10.52 67 -7.96 67 -27 67 C-23.67052023 55.9017341 -23.67052023 55.9017341 -21.625 52.25 C-18.95926935 47.15797559 -17.11728155 41.90254224 -15.234375 36.48046875 C-13.37043893 31.22487685 -11.20003994 26.12223039 -9 21 C-8.22770215 19.19407987 -7.45558281 17.3880834 -6.68359375 15.58203125 C-4.46072207 10.38587225 -2.23201917 5.19223552 0 0 Z " fill="#FAFBFA" transform="translate(72,44)"/>
</svg>
